# xmcd
#
# Track frame offsets:
#	150
#	12675
#	24847
#
# Disc length: 539
#
# Revision: 2
# Processed by: cddbd v1.5.1PL0 Copyright (c) Steve Scherf et al.
# Submitted via: CDex 1.50beta10
# Normalized: r0:TSWAP
#
DISCID=19021903
DTITLE=Steve Earle - Transcendental Blues bonus ep feat. Stacey Earle
DYEAR=2000
DGENRE=Country
TTITLE0=Steve Earle - Breed
TTITLE1=Stacey Earle - Promise You Anything
TTITLE2=Stacey Earle - Fearless Heart
EXTD=YEAR: 2000
EXTT0=
EXTT1=
EXTT2=
PLAYORDER=
